<mxfile host="app.diagrams.net" modified="2022-08-25T05:24:13.446Z" agent="5.0 (Macintosh; Intel Mac OS X 10_15_7) AppleWebKit/537.36 (KHTML, like Gecko) Chrome/104.0.0.0 Safari/537.36" etag="Byiho3wSFAbnkRO1IRDw" version="20.2.7" type="github">
  <diagram id="lx7-M-aAopA9tVtOG1mA" name="Page-1">
    <mxGraphModel dx="1045" dy="814" grid="1" gridSize="10" guides="1" tooltips="1" connect="1" arrows="1" fold="1" page="1" pageScale="1" pageWidth="850" pageHeight="1100" math="0" shadow="0">
      <root>
        <mxCell id="0" />
        <mxCell id="1" parent="0" />
        <mxCell id="MgWGCzpUl8yF8HyT7mXf-8" value="" style="edgeStyle=orthogonalEdgeStyle;rounded=0;orthogonalLoop=1;jettySize=auto;html=1;" edge="1" parent="1" source="MgWGCzpUl8yF8HyT7mXf-2" target="MgWGCzpUl8yF8HyT7mXf-6">
          <mxGeometry relative="1" as="geometry">
            <Array as="points">
              <mxPoint x="190" y="468" />
              <mxPoint x="190" y="468" />
            </Array>
          </mxGeometry>
        </mxCell>
        <mxCell id="MgWGCzpUl8yF8HyT7mXf-2" value="Developer&lt;br&gt;Local Git Repo" style="verticalLabelPosition=bottom;html=1;verticalAlign=top;align=center;strokeColor=none;fillColor=#FF3333;shape=mxgraph.azure.git_repository;" vertex="1" parent="1">
          <mxGeometry x="140" y="440" width="50" height="50" as="geometry" />
        </mxCell>
        <mxCell id="MgWGCzpUl8yF8HyT7mXf-5" value="" style="edgeStyle=orthogonalEdgeStyle;rounded=0;orthogonalLoop=1;jettySize=auto;html=1;" edge="1" parent="1" source="MgWGCzpUl8yF8HyT7mXf-4" target="MgWGCzpUl8yF8HyT7mXf-2">
          <mxGeometry relative="1" as="geometry" />
        </mxCell>
        <mxCell id="MgWGCzpUl8yF8HyT7mXf-4" value="User" style="sketch=0;outlineConnect=0;fontColor=#232F3E;gradientColor=none;strokeColor=#232F3E;fillColor=#ffffff;dashed=0;verticalLabelPosition=bottom;verticalAlign=top;align=center;html=1;fontSize=12;fontStyle=0;aspect=fixed;shape=mxgraph.aws4.resourceIcon;resIcon=mxgraph.aws4.user;" vertex="1" parent="1">
          <mxGeometry x="20" y="442.5" width="45" height="45" as="geometry" />
        </mxCell>
        <mxCell id="MgWGCzpUl8yF8HyT7mXf-11" value="" style="edgeStyle=orthogonalEdgeStyle;rounded=0;orthogonalLoop=1;jettySize=auto;html=1;" edge="1" parent="1" source="MgWGCzpUl8yF8HyT7mXf-6" target="MgWGCzpUl8yF8HyT7mXf-10">
          <mxGeometry relative="1" as="geometry">
            <Array as="points">
              <mxPoint x="290" y="469" />
              <mxPoint x="290" y="469" />
            </Array>
          </mxGeometry>
        </mxCell>
        <mxCell id="MgWGCzpUl8yF8HyT7mXf-6" value="Source Code&lt;br&gt;Code Commit" style="outlineConnect=0;dashed=0;verticalLabelPosition=bottom;verticalAlign=top;align=center;html=1;shape=mxgraph.aws3.codecommit;fillColor=#759C3E;gradientColor=none;" vertex="1" parent="1">
          <mxGeometry x="262" y="438.75" width="50" height="52.5" as="geometry" />
        </mxCell>
        <mxCell id="MgWGCzpUl8yF8HyT7mXf-13" value="" style="edgeStyle=orthogonalEdgeStyle;rounded=0;orthogonalLoop=1;jettySize=auto;html=1;" edge="1" parent="1" source="MgWGCzpUl8yF8HyT7mXf-10" target="MgWGCzpUl8yF8HyT7mXf-12">
          <mxGeometry relative="1" as="geometry" />
        </mxCell>
        <mxCell id="MgWGCzpUl8yF8HyT7mXf-10" value="Review&lt;br&gt;Code Build" style="outlineConnect=0;dashed=0;verticalLabelPosition=bottom;verticalAlign=top;align=center;html=1;shape=mxgraph.aws3.codebuild;fillColor=#759C3E;gradientColor=none;" vertex="1" parent="1">
          <mxGeometry x="384" y="437.5" width="50" height="55" as="geometry" />
        </mxCell>
        <mxCell id="MgWGCzpUl8yF8HyT7mXf-19" value="" style="edgeStyle=orthogonalEdgeStyle;rounded=0;orthogonalLoop=1;jettySize=auto;html=1;" edge="1" parent="1" source="MgWGCzpUl8yF8HyT7mXf-12" target="MgWGCzpUl8yF8HyT7mXf-14">
          <mxGeometry relative="1" as="geometry" />
        </mxCell>
        <mxCell id="MgWGCzpUl8yF8HyT7mXf-12" value="Build&lt;br&gt;Code Build" style="outlineConnect=0;dashed=0;verticalLabelPosition=bottom;verticalAlign=top;align=center;html=1;shape=mxgraph.aws3.codebuild;fillColor=#759C3E;gradientColor=none;" vertex="1" parent="1">
          <mxGeometry x="506" y="437.5" width="50" height="55" as="geometry" />
        </mxCell>
        <mxCell id="MgWGCzpUl8yF8HyT7mXf-20" value="" style="edgeStyle=orthogonalEdgeStyle;rounded=0;orthogonalLoop=1;jettySize=auto;html=1;" edge="1" parent="1" source="MgWGCzpUl8yF8HyT7mXf-14" target="MgWGCzpUl8yF8HyT7mXf-16">
          <mxGeometry relative="1" as="geometry" />
        </mxCell>
        <mxCell id="MgWGCzpUl8yF8HyT7mXf-14" value="Deploy&lt;br&gt;Code Deploy" style="outlineConnect=0;dashed=0;verticalLabelPosition=bottom;verticalAlign=top;align=center;html=1;shape=mxgraph.aws3.codedeploy;fillColor=#759C3E;gradientColor=none;" vertex="1" parent="1">
          <mxGeometry x="628" y="437.5" width="50" height="55" as="geometry" />
        </mxCell>
        <mxCell id="MgWGCzpUl8yF8HyT7mXf-16" value="Beanstalk" style="outlineConnect=0;dashed=0;verticalLabelPosition=bottom;verticalAlign=top;align=center;html=1;shape=mxgraph.aws3.elastic_beanstalk;fillColor=#F58534;gradientColor=none;" vertex="1" parent="1">
          <mxGeometry x="750" y="437.5" width="50" height="55" as="geometry" />
        </mxCell>
        <mxCell id="MgWGCzpUl8yF8HyT7mXf-17" value="RDS" style="outlineConnect=0;dashed=0;verticalLabelPosition=bottom;verticalAlign=top;align=center;html=1;shape=mxgraph.aws3.rds;fillColor=#2E73B8;gradientColor=none;" vertex="1" parent="1">
          <mxGeometry x="750" y="577.5" width="50" height="57.5" as="geometry" />
        </mxCell>
        <mxCell id="MgWGCzpUl8yF8HyT7mXf-18" value="S3&lt;br&gt;Artifact Storage" style="outlineConnect=0;dashed=0;verticalLabelPosition=bottom;verticalAlign=top;align=center;html=1;shape=mxgraph.aws3.s3;fillColor=#E05243;gradientColor=none;" vertex="1" parent="1">
          <mxGeometry x="623" y="577.5" width="60" height="60" as="geometry" />
        </mxCell>
      </root>
    </mxGraphModel>
  </diagram>
</mxfile>
